<svg width="121" height="40" viewBox="0 0 121 40" fill="none" xmlns="http://www.w3.org/2000/svg">
<path d="M10 11H22.7981V13.6679H13.0481V16.6622H21.6827V19.167H13.0481V23.3417H23V26H10V11Z" fill="#3458DB"/>
<path d="M36.7268 25.4134L30.4166 32C27.1945 28.638 27.1945 23.186 30.4166 19.824L30.8929 19.3254L36.7268 25.4134Z" fill="#3458DB"/>
<path d="M45.5837 19.8256C48.8054 23.1876 48.8055 28.6381 45.5837 32L30.4166 16.176C27.195 12.8142 27.1952 7.36357 30.4166 4.00161L45.5837 19.8256Z" fill="#3458DB"/>
<path d="M45.5822 4C48.8039 7.36181 48.8037 12.8124 45.5822 16.1744L45.1014 16.6746L39.2674 10.5882L45.5822 4Z" fill="#3458DB"/>
<path d="M54 11H61.3489C62.4581 11 63.4195 11.1216 64.2329 11.3647C65.0464 11.6014 65.7212 11.9469 66.2573 12.4012C66.7935 12.8554 67.191 13.4088 67.4498 14.0614C67.7148 14.714 67.8473 15.453 67.8473 16.2783C67.8473 16.8349 67.7826 17.366 67.6532 17.8714C67.5238 18.3704 67.3235 18.8311 67.0523 19.2534C66.7873 19.6756 66.4515 20.0531 66.0447 20.3858C65.638 20.7121 65.1604 20.984 64.6119 21.2015L67.7549 26H64.1682L61.4505 21.739H61.3674L56.9303 21.7294V26H54V11ZM61.4228 19.0998C61.9774 19.0998 62.4612 19.0326 62.8741 18.8983C63.2932 18.7639 63.6413 18.5752 63.9187 18.3321C64.2021 18.0889 64.4117 17.7946 64.5472 17.4491C64.689 17.0972 64.7598 16.707 64.7598 16.2783C64.7598 15.4402 64.4825 14.794 63.9279 14.3397C63.3733 13.8791 62.5382 13.6488 61.4228 13.6488H56.9303V19.0998H61.4228Z" fill="#28272E"/>
<path d="M75.3034 11H78.4093L85.3977 26H82.3195L81.164 23.476H72.7243L71.6058 26H68.5184L75.3034 11ZM80.0085 20.9712L76.8841 14.1574L73.8429 20.9712H80.0085Z" fill="#28272E"/>
<path d="M91.0512 13.6679H85.7175V11H99.3152V13.6679H93.9815V26H91.0512V13.6679Z" fill="#28272E"/>
<path d="M101.502 11H113.806V13.6679H104.433V16.6622H112.734V19.167H104.433V23.3417H114V26H101.502V11Z" fill="#28272E"/>
</svg>
